<mxfile host="app.diagrams.net" modified="2022-11-22T12:38:47.907Z" agent="5.0 (Windows NT 10.0; Win64; x64) AppleWebKit/537.36 (KHTML, like Gecko) Chrome/107.0.0.0 Safari/537.36 Edg/107.0.1418.52" etag="JT62UXMn03dSks7CMljW" version="20.5.3" type="github">
  <diagram id="CVpFJR9pGLpHTyntyMCX" name="Page-1">
    <mxGraphModel dx="865" dy="456" grid="1" gridSize="10" guides="1" tooltips="1" connect="1" arrows="1" fold="1" page="1" pageScale="1" pageWidth="1000" pageHeight="1000" math="0" shadow="0">
      <root>
        <mxCell id="0" />
        <mxCell id="1" parent="0" />
        <mxCell id="fPC_-fTJY8qZfTLBqXyc-53" value="获取微信优惠卷" style="html=1;verticalAlign=bottom;endArrow=block;entryX=0;entryY=0;rounded=0;" edge="1" target="fPC_-fTJY8qZfTLBqXyc-52" parent="1" source="fPC_-fTJY8qZfTLBqXyc-5">
          <mxGeometry relative="1" as="geometry">
            <mxPoint x="680" y="740" as="sourcePoint" />
          </mxGeometry>
        </mxCell>
        <mxCell id="fPC_-fTJY8qZfTLBqXyc-40" value="返回用户信息" style="html=1;verticalAlign=bottom;endArrow=open;dashed=1;endSize=8;exitX=0;exitY=0.95;rounded=0;" edge="1" source="fPC_-fTJY8qZfTLBqXyc-38" parent="1" target="fPC_-fTJY8qZfTLBqXyc-4">
          <mxGeometry relative="1" as="geometry">
            <mxPoint x="230" y="653" as="targetPoint" />
          </mxGeometry>
        </mxCell>
        <mxCell id="fPC_-fTJY8qZfTLBqXyc-44" value="返回用户信息" style="html=1;verticalAlign=bottom;endArrow=open;dashed=1;endSize=8;exitX=0;exitY=0.95;rounded=0;" edge="1" source="fPC_-fTJY8qZfTLBqXyc-42" parent="1" target="fPC_-fTJY8qZfTLBqXyc-5">
          <mxGeometry relative="1" as="geometry">
            <mxPoint x="680" y="626" as="targetPoint" />
          </mxGeometry>
        </mxCell>
        <mxCell id="fPC_-fTJY8qZfTLBqXyc-43" value="携带微信 token 和 openid" style="html=1;verticalAlign=bottom;endArrow=block;entryX=0;entryY=0;rounded=0;" edge="1" target="fPC_-fTJY8qZfTLBqXyc-42" parent="1" source="fPC_-fTJY8qZfTLBqXyc-5">
          <mxGeometry relative="1" as="geometry">
            <mxPoint x="680" y="550" as="sourcePoint" />
          </mxGeometry>
        </mxCell>
        <mxCell id="fPC_-fTJY8qZfTLBqXyc-35" value="返回自身服务 token" style="html=1;verticalAlign=bottom;endArrow=open;dashed=1;endSize=8;exitX=0;exitY=0.95;rounded=0;" edge="1" source="fPC_-fTJY8qZfTLBqXyc-33" parent="1" target="fPC_-fTJY8qZfTLBqXyc-4">
          <mxGeometry relative="1" as="geometry">
            <mxPoint x="260" y="506" as="targetPoint" />
          </mxGeometry>
        </mxCell>
        <mxCell id="fPC_-fTJY8qZfTLBqXyc-6" value="微信认证服务" style="shape=umlLifeline;perimeter=lifelinePerimeter;whiteSpace=wrap;html=1;container=1;collapsible=0;recursiveResize=0;outlineConnect=0;" vertex="1" parent="1">
          <mxGeometry x="490" y="40" width="110" height="800" as="geometry" />
        </mxCell>
        <mxCell id="fPC_-fTJY8qZfTLBqXyc-22" value="" style="html=1;points=[];perimeter=orthogonalPerimeter;" vertex="1" parent="fPC_-fTJY8qZfTLBqXyc-6">
          <mxGeometry x="50" y="150" width="10" height="40" as="geometry" />
        </mxCell>
        <mxCell id="fPC_-fTJY8qZfTLBqXyc-27" value="" style="html=1;points=[];perimeter=orthogonalPerimeter;" vertex="1" parent="fPC_-fTJY8qZfTLBqXyc-6">
          <mxGeometry x="50" y="230" width="10" height="40" as="geometry" />
        </mxCell>
        <mxCell id="fPC_-fTJY8qZfTLBqXyc-7" value="微信资源服务" style="shape=umlLifeline;perimeter=lifelinePerimeter;whiteSpace=wrap;html=1;container=1;collapsible=0;recursiveResize=0;outlineConnect=0;" vertex="1" parent="1">
          <mxGeometry x="700" y="40" width="110" height="800" as="geometry" />
        </mxCell>
        <mxCell id="fPC_-fTJY8qZfTLBqXyc-42" value="" style="html=1;points=[];perimeter=orthogonalPerimeter;" vertex="1" parent="fPC_-fTJY8qZfTLBqXyc-7">
          <mxGeometry x="50" y="510" width="10" height="40" as="geometry" />
        </mxCell>
        <mxCell id="fPC_-fTJY8qZfTLBqXyc-52" value="" style="html=1;points=[];perimeter=orthogonalPerimeter;" vertex="1" parent="fPC_-fTJY8qZfTLBqXyc-7">
          <mxGeometry x="50" y="700" width="10" height="40" as="geometry" />
        </mxCell>
        <mxCell id="fPC_-fTJY8qZfTLBqXyc-14" value="触发请求" style="html=1;verticalAlign=bottom;endArrow=block;entryX=0;entryY=0;rounded=0;" edge="1" target="fPC_-fTJY8qZfTLBqXyc-13" parent="1" source="fPC_-fTJY8qZfTLBqXyc-4">
          <mxGeometry relative="1" as="geometry">
            <mxPoint x="260" y="110" as="sourcePoint" />
          </mxGeometry>
        </mxCell>
        <mxCell id="fPC_-fTJY8qZfTLBqXyc-15" value="重定向授权页" style="html=1;verticalAlign=bottom;endArrow=open;dashed=1;endSize=8;exitX=0;exitY=0.95;rounded=0;" edge="1" source="fPC_-fTJY8qZfTLBqXyc-13" parent="1" target="fPC_-fTJY8qZfTLBqXyc-4">
          <mxGeometry relative="1" as="geometry">
            <mxPoint x="260" y="186" as="targetPoint" />
          </mxGeometry>
        </mxCell>
        <mxCell id="fPC_-fTJY8qZfTLBqXyc-23" value="第三方登录" style="html=1;verticalAlign=bottom;endArrow=block;entryX=0;entryY=0;rounded=0;" edge="1" target="fPC_-fTJY8qZfTLBqXyc-22" parent="1" source="fPC_-fTJY8qZfTLBqXyc-21">
          <mxGeometry relative="1" as="geometry">
            <mxPoint x="470" y="170" as="sourcePoint" />
          </mxGeometry>
        </mxCell>
        <mxCell id="fPC_-fTJY8qZfTLBqXyc-24" value="回调返回微信 code" style="html=1;verticalAlign=bottom;endArrow=open;dashed=1;endSize=8;exitX=0;exitY=0.95;rounded=0;" edge="1" source="fPC_-fTJY8qZfTLBqXyc-22" parent="1" target="fPC_-fTJY8qZfTLBqXyc-5">
          <mxGeometry relative="1" as="geometry">
            <mxPoint x="470" y="246" as="targetPoint" />
          </mxGeometry>
        </mxCell>
        <mxCell id="fPC_-fTJY8qZfTLBqXyc-28" value="根据 code 获取 token 和 openid" style="html=1;verticalAlign=bottom;endArrow=block;entryX=0;entryY=0;rounded=0;" edge="1" target="fPC_-fTJY8qZfTLBqXyc-27" parent="1" source="fPC_-fTJY8qZfTLBqXyc-5">
          <mxGeometry relative="1" as="geometry">
            <mxPoint x="470" y="270" as="sourcePoint" />
          </mxGeometry>
        </mxCell>
        <mxCell id="fPC_-fTJY8qZfTLBqXyc-29" value="返回 token 和 openid" style="html=1;verticalAlign=bottom;endArrow=open;dashed=1;endSize=8;exitX=0;exitY=0.95;rounded=0;" edge="1" source="fPC_-fTJY8qZfTLBqXyc-27" parent="1" target="fPC_-fTJY8qZfTLBqXyc-5">
          <mxGeometry relative="1" as="geometry">
            <mxPoint x="470" y="346" as="targetPoint" />
          </mxGeometry>
        </mxCell>
        <mxCell id="fPC_-fTJY8qZfTLBqXyc-5" value="服务端" style="shape=umlLifeline;perimeter=lifelinePerimeter;whiteSpace=wrap;html=1;container=1;collapsible=0;recursiveResize=0;outlineConnect=0;" vertex="1" parent="1">
          <mxGeometry x="280" y="40" width="110" height="800" as="geometry" />
        </mxCell>
        <mxCell id="fPC_-fTJY8qZfTLBqXyc-13" value="" style="html=1;points=[];perimeter=orthogonalPerimeter;" vertex="1" parent="fPC_-fTJY8qZfTLBqXyc-5">
          <mxGeometry x="50" y="70" width="10" height="40" as="geometry" />
        </mxCell>
        <mxCell id="fPC_-fTJY8qZfTLBqXyc-25" value="" style="html=1;points=[];perimeter=orthogonalPerimeter;" vertex="1" parent="fPC_-fTJY8qZfTLBqXyc-5">
          <mxGeometry x="50" y="190" width="10" height="160" as="geometry" />
        </mxCell>
        <mxCell id="fPC_-fTJY8qZfTLBqXyc-30" style="edgeStyle=orthogonalEdgeStyle;rounded=0;orthogonalLoop=1;jettySize=auto;html=1;exitX=1.11;exitY=0.592;exitDx=0;exitDy=0;exitPerimeter=0;" edge="1" parent="fPC_-fTJY8qZfTLBqXyc-5" source="fPC_-fTJY8qZfTLBqXyc-25" target="fPC_-fTJY8qZfTLBqXyc-25">
          <mxGeometry relative="1" as="geometry">
            <Array as="points">
              <mxPoint x="100" y="291" />
              <mxPoint x="100" y="330" />
            </Array>
          </mxGeometry>
        </mxCell>
        <mxCell id="fPC_-fTJY8qZfTLBqXyc-32" value="返回自身服务 code" style="html=1;verticalAlign=bottom;endArrow=open;dashed=1;endSize=8;exitX=0;exitY=0.95;rounded=0;" edge="1" parent="fPC_-fTJY8qZfTLBqXyc-5">
          <mxGeometry relative="1" as="geometry">
            <mxPoint x="-155.33333333333337" y="350" as="targetPoint" />
            <mxPoint x="50" y="350" as="sourcePoint" />
          </mxGeometry>
        </mxCell>
        <mxCell id="fPC_-fTJY8qZfTLBqXyc-33" value="" style="html=1;points=[];perimeter=orthogonalPerimeter;" vertex="1" parent="fPC_-fTJY8qZfTLBqXyc-5">
          <mxGeometry x="50" y="390" width="10" height="40" as="geometry" />
        </mxCell>
        <mxCell id="fPC_-fTJY8qZfTLBqXyc-38" value="" style="html=1;points=[];perimeter=orthogonalPerimeter;" vertex="1" parent="fPC_-fTJY8qZfTLBqXyc-5">
          <mxGeometry x="50" y="470" width="10" height="90" as="geometry" />
        </mxCell>
        <mxCell id="fPC_-fTJY8qZfTLBqXyc-45" value="" style="html=1;points=[];perimeter=orthogonalPerimeter;" vertex="1" parent="fPC_-fTJY8qZfTLBqXyc-5">
          <mxGeometry x="50" y="600" width="10" height="160" as="geometry" />
        </mxCell>
        <mxCell id="fPC_-fTJY8qZfTLBqXyc-49" style="edgeStyle=orthogonalEdgeStyle;rounded=0;orthogonalLoop=1;jettySize=auto;html=1;" edge="1" parent="fPC_-fTJY8qZfTLBqXyc-5" source="fPC_-fTJY8qZfTLBqXyc-45">
          <mxGeometry relative="1" as="geometry">
            <mxPoint x="60" y="658" as="targetPoint" />
            <Array as="points">
              <mxPoint x="100" y="620" />
              <mxPoint x="100" y="658" />
            </Array>
          </mxGeometry>
        </mxCell>
        <mxCell id="fPC_-fTJY8qZfTLBqXyc-4" value="客户端" style="shape=umlLifeline;perimeter=lifelinePerimeter;whiteSpace=wrap;html=1;container=1;collapsible=0;recursiveResize=0;outlineConnect=0;" vertex="1" parent="1">
          <mxGeometry x="70" y="40" width="110" height="800" as="geometry" />
        </mxCell>
        <mxCell id="fPC_-fTJY8qZfTLBqXyc-21" value="" style="html=1;points=[];perimeter=orthogonalPerimeter;" vertex="1" parent="fPC_-fTJY8qZfTLBqXyc-4">
          <mxGeometry x="50" y="150" width="10" height="200" as="geometry" />
        </mxCell>
        <mxCell id="fPC_-fTJY8qZfTLBqXyc-20" value="" style="html=1;points=[];perimeter=orthogonalPerimeter;" vertex="1" parent="fPC_-fTJY8qZfTLBqXyc-4">
          <mxGeometry x="50" y="70" width="10" height="40" as="geometry" />
        </mxCell>
        <mxCell id="fPC_-fTJY8qZfTLBqXyc-41" value="" style="html=1;points=[];perimeter=orthogonalPerimeter;" vertex="1" parent="fPC_-fTJY8qZfTLBqXyc-4">
          <mxGeometry x="50" y="470" width="10" height="90" as="geometry" />
        </mxCell>
        <mxCell id="fPC_-fTJY8qZfTLBqXyc-48" value="" style="html=1;points=[];perimeter=orthogonalPerimeter;" vertex="1" parent="fPC_-fTJY8qZfTLBqXyc-4">
          <mxGeometry x="50" y="600" width="10" height="160" as="geometry" />
        </mxCell>
        <mxCell id="fPC_-fTJY8qZfTLBqXyc-31" value="创建自身服务 code" style="text;html=1;align=center;verticalAlign=middle;resizable=0;points=[];autosize=1;strokeColor=none;fillColor=none;" vertex="1" parent="1">
          <mxGeometry x="380" y="335" width="120" height="30" as="geometry" />
        </mxCell>
        <mxCell id="fPC_-fTJY8qZfTLBqXyc-36" value="" style="html=1;points=[];perimeter=orthogonalPerimeter;" vertex="1" parent="1">
          <mxGeometry x="120" y="430" width="10" height="40" as="geometry" />
        </mxCell>
        <mxCell id="fPC_-fTJY8qZfTLBqXyc-34" value="获取自身服务 token" style="html=1;verticalAlign=bottom;endArrow=block;entryX=0;entryY=0;rounded=0;" edge="1" target="fPC_-fTJY8qZfTLBqXyc-33" parent="1" source="fPC_-fTJY8qZfTLBqXyc-4">
          <mxGeometry relative="1" as="geometry">
            <mxPoint x="260" y="430" as="sourcePoint" />
          </mxGeometry>
        </mxCell>
        <mxCell id="fPC_-fTJY8qZfTLBqXyc-39" value="获取微信用户信息&lt;br&gt;携带自身服务 token" style="html=1;verticalAlign=bottom;endArrow=block;entryX=0;entryY=0;rounded=0;" edge="1" target="fPC_-fTJY8qZfTLBqXyc-38" parent="1" source="fPC_-fTJY8qZfTLBqXyc-4">
          <mxGeometry relative="1" as="geometry">
            <mxPoint x="260" y="510" as="sourcePoint" />
          </mxGeometry>
        </mxCell>
        <mxCell id="fPC_-fTJY8qZfTLBqXyc-46" value="参与活动&lt;br&gt;携带自身服务token" style="html=1;verticalAlign=bottom;endArrow=block;entryX=0;entryY=0;rounded=0;" edge="1" target="fPC_-fTJY8qZfTLBqXyc-45" parent="1" source="fPC_-fTJY8qZfTLBqXyc-4">
          <mxGeometry relative="1" as="geometry">
            <mxPoint x="260" y="640" as="sourcePoint" />
          </mxGeometry>
        </mxCell>
        <mxCell id="fPC_-fTJY8qZfTLBqXyc-51" value="业务逻辑" style="text;html=1;align=center;verticalAlign=middle;resizable=0;points=[];autosize=1;strokeColor=none;fillColor=none;" vertex="1" parent="1">
          <mxGeometry x="380" y="660" width="70" height="30" as="geometry" />
        </mxCell>
        <mxCell id="fPC_-fTJY8qZfTLBqXyc-47" value="返回结果" style="html=1;verticalAlign=bottom;endArrow=open;dashed=1;endSize=8;exitX=0;exitY=0.95;rounded=0;" edge="1" source="fPC_-fTJY8qZfTLBqXyc-45" parent="1" target="fPC_-fTJY8qZfTLBqXyc-4">
          <mxGeometry relative="1" as="geometry">
            <mxPoint x="260" y="716" as="targetPoint" />
          </mxGeometry>
        </mxCell>
        <mxCell id="fPC_-fTJY8qZfTLBqXyc-54" value="return" style="html=1;verticalAlign=bottom;endArrow=open;dashed=1;endSize=8;exitX=0;exitY=0.95;rounded=0;" edge="1" source="fPC_-fTJY8qZfTLBqXyc-52" parent="1" target="fPC_-fTJY8qZfTLBqXyc-5">
          <mxGeometry relative="1" as="geometry">
            <mxPoint x="680" y="816" as="targetPoint" />
          </mxGeometry>
        </mxCell>
      </root>
    </mxGraphModel>
  </diagram>
</mxfile>
